<svg xmlns="http://www.w3.org/2000/svg" xmlns:xlink="http://www.w3.org/1999/xlink" width="500" zoomAndPan="magnify" viewBox="0 0 375 374.999991" height="500" preserveAspectRatio="xMidYMid meet" version="1.0"><defs><clipPath id="8ba353604d"><path d="M 1.9375 4.421875 L 370.679688 4.421875 L 370.679688 373.164062 L 1.9375 373.164062 Z M 1.9375 4.421875 " clip-rule="nonzero"/></clipPath><clipPath id="0af1f35479"><path d="M 186.308594 4.421875 C 84.484375 4.421875 1.9375 86.96875 1.9375 188.792969 C 1.9375 290.617188 84.484375 373.164062 186.308594 373.164062 C 288.132812 373.164062 370.679688 290.617188 370.679688 188.792969 C 370.679688 86.96875 288.132812 4.421875 186.308594 4.421875 Z M 186.308594 4.421875 " clip-rule="nonzero"/></clipPath><clipPath id="0b9563881a"><path d="M 180 82.707031 L 277 82.707031 L 277 215 L 180 215 Z M 180 82.707031 " clip-rule="nonzero"/></clipPath><clipPath id="6eec03cc59"><path d="M 153 82.707031 L 254 82.707031 L 254 300 L 153 300 Z M 153 82.707031 " clip-rule="nonzero"/></clipPath></defs><rect x="-37.5" width="450" fill="#ffffff" y="-37.499999" height="449.999989" fill-opacity="1"/><rect x="-37.5" width="450" fill="#0000080" y="-37.499999" height="449.999989" fill-opacity="1"/><g clip-path="url(#8ba353604d)"><g clip-path="url(#0af1f35479)"><path fill="#ff5200" d="M 1.9375 4.421875 L 370.679688 4.421875 L 370.679688 373.164062 L 1.9375 373.164062 Z M 1.9375 4.421875 " fill-opacity="1" fill-rule="nonzero"/></g></g><path fill="#ffffff" d="M 285.660156 344.476562 C 285.660156 321.234375 304.488281 302.320312 327.816406 302.320312 C 351.058594 302.320312 369.976562 321.144531 369.976562 344.476562 C 369.976562 367.714844 351.148438 386.632812 327.816406 386.632812 C 304.578125 386.632812 285.660156 367.714844 285.660156 344.476562 Z M 111.898438 386.632812 C 135.140625 386.632812 154.054688 367.808594 154.054688 344.476562 C 154.054688 321.234375 135.230469 302.320312 111.898438 302.320312 C 88.570312 302.320312 69.742188 321.144531 69.742188 344.476562 C 69.742188 367.714844 88.660156 386.632812 111.898438 386.632812 Z M 111.898438 386.632812 " fill-opacity="1" fill-rule="nonzero"/><path fill="#ffffff" d="M 241.613281 299.347656 C 241.613281 299.347656 237.648438 309.707031 248.097656 309.707031 C 271.699219 309.707031 271.519531 323.488281 271.519531 323.488281 L 220.625 323.488281 L 226.929688 299.347656 Z M 241.613281 299.347656 " fill-opacity="1" fill-rule="nonzero"/><path fill="#ffffff" d="M 274.671875 352.855469 C 265.664062 329.253906 274.761719 302.050781 297.28125 288.898438 C 319.800781 275.746094 347.996094 281.242188 364.121094 300.609375 Z M 274.671875 352.855469 " fill-opacity="1" fill-rule="nonzero"/><path fill="#ffffff" d="M 189.546875 271.242188 C 170.359375 305.292969 195.492188 323.488281 195.492188 323.488281 L 248.730469 323.488281 C 255.394531 320.964844 270.167969 306.011719 279.804688 283.851562 C 289.445312 261.695312 256.113281 192.152344 256.113281 192.152344 C 270.167969 174.40625 306.828125 182.515625 306.828125 182.515625 L 306.828125 220.257812 L 285.660156 214.3125 L 316.015625 276.46875 L 259.808594 344.476562 L 63.078125 344.476562 L 103.792969 271.242188 Z M 189.546875 271.242188 " fill-opacity="1" fill-rule="nonzero"/><path fill="#ffffff" d="M 306.828125 344.476562 C 306.828125 332.855469 316.199219 323.488281 327.816406 323.488281 C 339.4375 323.488281 348.804688 332.855469 348.804688 344.476562 C 348.804688 356.097656 339.4375 365.464844 327.816406 365.464844 C 316.199219 365.464844 306.828125 356.097656 306.828125 344.476562 Z M 111.898438 365.464844 C 123.519531 365.464844 132.886719 356.097656 132.886719 344.476562 C 132.886719 332.855469 123.519531 323.488281 111.898438 323.488281 C 100.277344 323.488281 90.910156 332.855469 90.910156 344.476562 C 90.910156 356.097656 100.277344 365.464844 111.898438 365.464844 Z M 111.898438 365.464844 " fill-opacity="1" fill-rule="nonzero"/><path fill="#ffffff" d="M 203.597656 271.242188 L 84.515625 271.242188 L 84.515625 248.363281 L 203.597656 248.363281 Z M 118.566406 282.773438 C 86.496094 282.773438 52.71875 310.425781 52.71875 344.476562 L 168.828125 344.476562 C 168.828125 302.679688 161.082031 282.773438 118.566406 282.773438 Z M 235.21875 188.460938 C 226.570312 184.046875 219.542969 140.359375 193.871094 141.890625 C 168.109375 143.332031 157.027344 196.566406 154.054688 210.621094 L 193.960938 214.3125 C 196.933594 199.539062 205.761719 180.625 205.761719 180.625 C 205.761719 180.625 210.894531 206.117188 223.867188 208.367188 C 231.433594 209.628906 245.757812 211.429688 256.476562 212.691406 L 259.085938 193.59375 C 250.351562 192.605469 239.902344 190.800781 235.21875 188.460938 Z M 235.21875 188.460938 " fill-opacity="1" fill-rule="nonzero"/><g clip-path="url(#0b9563881a)"><path fill="#ffffff" d="M 231.703125 108.558594 C 231.703125 122.882812 220.082031 134.414062 205.851562 134.414062 C 191.527344 134.414062 180 122.792969 180 108.558594 C 180 94.328125 191.527344 82.707031 205.851562 82.707031 C 220.082031 82.707031 231.703125 94.328125 231.703125 108.558594 Z M 273.140625 195.125 C 273.140625 195.125 266.835938 194.675781 259.179688 193.683594 L 256.566406 212.78125 C 264.3125 213.683594 270.167969 214.3125 270.167969 214.3125 C 277.554688 207.648438 278.636719 206.207031 273.140625 195.125 Z M 273.140625 195.125 " fill-opacity="1" fill-rule="nonzero"/></g><path fill="#ffffff" d="M 130.363281 248.363281 L 37.222656 248.363281 L 37.222656 158.101562 L 130.363281 158.101562 Z M 72.085938 276.46875 C 72.085938 275.207031 71.003906 274.125 69.742188 274.125 L -1.960938 274.125 C -3.222656 274.125 -4.300781 275.207031 -4.300781 276.46875 C -4.300781 277.726562 -3.222656 278.808594 -1.960938 278.808594 L 69.742188 278.808594 C 71.09375 278.808594 72.085938 277.726562 72.085938 276.46875 Z M 48.484375 295.652344 C 48.484375 294.390625 47.402344 293.3125 46.140625 293.3125 L -62.582031 293.3125 C -63.84375 293.3125 -64.925781 294.390625 -64.925781 295.652344 C -64.925781 296.914062 -63.84375 297.996094 -62.582031 297.996094 L 46.140625 297.996094 C 47.402344 297.996094 48.484375 297.003906 48.484375 295.652344 Z M 72.085938 328.984375 C 72.085938 327.722656 71.003906 326.640625 69.742188 326.640625 L -19.707031 326.640625 C -20.96875 326.640625 -22.046875 327.722656 -22.046875 328.984375 C -22.046875 330.242188 -20.96875 331.324219 -19.707031 331.324219 L 69.742188 331.324219 C 71.09375 331.324219 72.085938 330.242188 72.085938 328.984375 Z M 93.253906 314.75 C 93.253906 313.488281 92.171875 312.410156 90.910156 312.410156 L 10.558594 312.410156 C 9.300781 312.410156 8.21875 313.488281 8.21875 314.75 C 8.21875 316.011719 9.300781 317.09375 10.558594 317.09375 L 90.910156 317.09375 C 92.261719 317.09375 93.253906 316.011719 93.253906 314.75 Z M 27.855469 226.921875 C 27.855469 225.664062 26.773438 224.582031 25.511719 224.582031 L -78.078125 224.582031 C -79.339844 224.582031 -80.417969 225.664062 -80.417969 226.921875 C -80.417969 228.183594 -79.339844 229.265625 -78.078125 229.265625 L 25.421875 229.265625 C 26.773438 229.265625 27.855469 228.183594 27.855469 226.921875 Z M 23.621094 206.207031 C 23.621094 204.945312 22.539062 203.863281 21.28125 203.863281 L -47.089844 203.863281 C -48.351562 203.863281 -49.433594 204.945312 -49.433594 206.207031 C -49.433594 207.464844 -48.351562 208.546875 -47.089844 208.546875 L 21.28125 208.546875 C 22.539062 208.546875 23.621094 207.464844 23.621094 206.207031 Z M 23.621094 206.207031 " fill-opacity="1" fill-rule="nonzero"/><g clip-path="url(#6eec03cc59)"><path fill="#ffffff" d="M 247.917969 98.832031 L 180 109.820312 C 180 109.371094 179.910156 109.011719 179.910156 108.558594 C 179.910156 94.328125 191.527344 82.707031 205.851562 82.707031 C 216.75 82.707031 226.027344 89.464844 229.8125 98.921875 L 247.46875 96.128906 Z M 154.054688 210.621094 C 151.082031 224.671875 154.777344 248.363281 168.828125 248.363281 L 203.597656 248.363281 C 224.316406 248.363281 230.261719 268.359375 221.34375 299.347656 L 244.226562 299.347656 C 255.304688 256.46875 258.996094 243.859375 244.226562 236.472656 C 229.453125 229.085938 190.988281 229.085938 193.960938 214.3125 Z M 154.054688 210.621094 " fill-opacity="1" fill-rule="nonzero"/></g></svg>